<svg xmlns="http://www.w3.org/2000/svg" viewBox="0 0 18 18">
                                  <path d="M15.8 4.2c-1.2-1-2.7-1.5-4.3-1.6l-.2.2c1.4.4 2.7 1.1 3.8 2-1.4-.8-3-1.3-4.6-1.5-1-.1-2.1-.1-3.1 0h-.3c-1.2.2-2.4.5-3.5 1-.6.3-1 .4-1 .4 1.2-1 2.5-1.6 4-2l-.1-.1c-1.6 0-3.1.6-4.3 1.6C.8 6.9 0 10 0 13.1c1.1 1.5 2.8 2.4 4.7 2.4 0 0 .6-.7 1-1.3-1.1-.3-2-.9-2.7-1.8.1.1.3.2.4.3h.1l.1.1c.4.2.7.4 1.1.5.7.3 1.5.6 2.3.8 1.3.2 2.7.2 4 0 .8-.1 1.5-.4 2.2-.7.6-.2 1.2-.5 1.8-.9-.7.9-1.7 1.6-2.8 1.8l1 1.2c1.9 0 3.6-.8 4.7-2.4 0-3.1-.7-6.2-2.1-8.9zm-9.7 7.5c-.9 0-1.6-.8-1.6-1.7 0-.9.7-1.7 1.6-1.7h.1c.8 0 1.5.7 1.5 1.6v.1c0 .9-.7 1.6-1.6 1.7zm5.7 0c-.9 0-1.6-.8-1.6-1.7 0-.9.6-1.7 1.5-1.7s1.6.8 1.6 1.7c.1.9-.7 1.6-1.5 1.7z"/>
                                </svg>