<svg xmlns="http://www.w3.org/2000/svg" viewBox="0 0 24 24">
                                  <defs/>
                                  <path fill-rule="evenodd" d="M18.4 21.8c.3.2.7.3 1.1.1.4-.1.6-.5.7-.8.9-4.1 3-14.4 3.8-18.1.1-.3 0-.6-.3-.8-.2-.2-.5-.3-.8-.2C18.7 3.6 5.8 8.4.5 10.4c-.3.1-.5.4-.5.8s.2.7.6.8c2.4.7 5.5 1.7 5.5 1.7s1.5 4.4 2.2 6.6c.1.3.3.5.6.6.3.1.6 0 .8-.2 1.2-1.1 3.1-2.9 3.1-2.9s3.6 2.5 5.6 4zm-11-8.7l1.7 5.5.4-3.5S16 9.2 19.7 5.9c.1-.1.1-.3 0-.4-.1-.1-.3-.1-.4-.1C15 8.2 7.4 13.1 7.4 13.1z" clip-rule="evenodd"/>
                                </svg>